<svg width="874" height="278" viewBox="0 0 874 278" fill="none" xmlns="http://www.w3.org/2000/svg">
<path d="M113.162 66.6189C115.713 63.3023 124.641 51.3115 140.202 49.7808C147.6 49.0154 153.595 50.9288 157.166 52.332C156.018 51.3115 154.36 50.0359 152.064 49.143C148.621 47.7398 145.687 47.6122 143.901 47.7398C147.6 46.5917 153.723 45.1885 161.12 46.0815C169.539 47.102 175.278 50.5461 179.998 53.2249C191.35 59.9857 197.727 68.5324 200.788 72.8695C203.722 76.9515 205.635 80.5232 207.038 83.202C204.998 81.9264 202.702 80.6507 202.319 81.0334C201.681 81.7988 205.253 86.391 208.697 89.5801C217.37 97.744 224.513 96.596 235.865 104.25C240.712 107.566 244.41 110.755 246.579 112.924C238.798 110.5 233.569 111.266 230.125 112.669C227.446 113.817 224.513 115.73 220.686 115.092C218.135 114.71 216.222 113.434 214.946 112.414C213.288 111.776 211.758 111.903 210.992 112.669C210.1 113.689 210.737 115.603 210.992 116.496C212.651 121.215 217.753 123.639 219.538 124.404C223.62 126.19 225.023 125.935 229.997 127.849C231.655 128.486 232.803 129.379 233.569 130.4C235.865 133.717 234.717 138.054 234.334 139.457C234.334 139.457 233.314 143.156 230.635 145.962C222.344 155.019 197.855 155.274 181.656 165.607C178.722 167.52 175.023 170.327 173.11 175.174C171.58 179.001 171.707 182.573 171.962 184.741C169.539 183.976 161.12 180.659 155.636 171.602C149.003 160.505 152.192 149.279 152.702 147.366C150.279 148.386 147.09 150.044 144.029 152.723C135.611 160.505 134.845 171.347 134.718 174.154C130.253 167.265 124.896 157.571 120.815 145.325C116.351 131.931 115.075 119.94 114.82 111.393C113.417 113.434 111.886 116.113 110.611 119.302C108.06 125.68 107.677 131.42 107.677 135.247C103.978 124.022 100.789 107.949 104.233 89.9628C105.254 83.0744 106.912 74.9105 113.162 66.6189ZM173.238 92.6416C177.447 94.6826 181.784 96.8511 185.993 98.8921C182.676 92.8967 178.977 88.6872 176.171 86.0084C173.62 83.5847 172.345 82.3091 170.049 81.2886C164.054 78.4822 157.677 80.1405 153.595 81.4161C150.534 82.4366 147.728 83.9674 144.667 85.1154C144.667 85.7532 144.794 86.2635 144.794 86.9013C147.728 88.5596 152.32 90.7281 158.187 92.0038C164.564 93.2794 169.794 93.0243 173.238 92.6416Z" fill="#8758FF"/>
<path d="M209.59 191.757C210.993 193.671 212.396 196.222 213.671 199.411C215.202 203.11 215.839 206.427 216.222 208.978C217.753 207.83 220.304 205.789 222.472 202.345C224.513 199.028 225.278 195.967 225.661 194.053C226.554 194.819 227.829 195.967 228.85 197.753C230.253 199.921 230.635 202.09 230.763 203.365C235.61 196.605 238.161 190.482 239.564 186.272C241.222 181.17 243.008 175.047 241.605 167.776C240.967 164.969 239.819 159.101 235.227 156.805C232.804 155.657 230.38 155.785 228.977 156.04C219.283 157.315 214.054 161.908 203.977 166.117C197.345 168.924 185.993 172.75 182.677 177.343C182.421 177.725 181.529 179.001 181.274 180.787C181.018 183.593 182.549 185.762 183.187 186.782C184.08 187.93 185.61 189.589 193.008 193.16C198.365 195.712 199.513 195.712 201.171 197.37C203.595 199.794 204.488 202.855 204.87 205.024C205.891 203.748 206.911 201.962 207.931 199.794C208.952 196.477 209.462 193.671 209.59 191.757Z" fill="#8758FF"/>
<path d="M164.309 199.539C166.86 207.447 170.304 221.097 168.901 238.317C167.498 256.304 161.375 269.698 157.421 277.224C160.993 276.076 182.931 268.55 191.732 246.226C196.069 235.511 195.559 225.689 194.793 220.204C194.028 223.138 192.753 226.582 190.967 230.281C188.671 235.001 186.12 238.7 183.824 241.379C184.972 238.317 186.63 232.832 186.375 225.944C186.12 219.566 184.207 214.718 182.931 211.785C182.931 213.57 182.676 215.867 182.166 218.29C181.528 221.479 180.508 224.03 179.487 225.944C178.977 222.5 177.702 217.397 174.641 211.912C171.197 205.789 167.115 201.835 164.309 199.539Z" fill="#8758FF"/>
<path d="M80.509 67.6392C82.4223 68.277 84.5906 69.0423 86.759 70.0628C88.162 70.7006 89.5651 71.3385 90.713 71.9763C90.4579 71.0833 90.2028 70.1904 89.9477 69.0423C89.8202 68.277 89.6926 67.5116 89.6926 66.7462C90.3304 66.8738 90.9681 67.0013 91.6059 67.2565C92.6263 67.5116 93.3916 67.8943 94.1569 68.277C93.1365 66.3635 91.861 64.0674 90.0753 61.6437C88.162 58.9649 87.1416 57.5618 85.2284 56.1586C82.1672 53.8625 78.9785 53.0971 77.9581 52.9695C76.1724 52.5868 69.5398 51.4388 66.6061 55.1381C64.6929 57.5618 64.948 61.0059 65.0755 63.0469C65.0755 63.4296 65.2031 65.2155 65.9684 67.384C66.9888 70.1904 68.3918 72.1038 69.6673 73.7621C73.3663 78.3544 77.5754 82.1812 79.9988 84.3498C79.2336 83.3293 78.3407 81.7985 77.8305 79.63C77.4479 78.3544 77.3203 77.0787 77.3203 76.1858C78.3407 76.0582 79.8713 75.9307 81.657 76.3134C83.8253 76.696 85.3559 77.589 86.3763 78.2268C85.611 76.5685 84.7182 74.7826 83.6978 72.8692C82.6774 70.9558 81.5294 69.2975 80.509 67.6392Z" fill="#8758FF"/>
<path d="M242.88 146.728C243.9 143.794 245.814 132.441 246.324 128.742C246.324 127.593 245.941 126.701 245.431 126.573C244.666 126.318 243.645 127.466 243.135 128.104C242.242 129.124 241.477 130.527 240.712 134.609C240.329 136.65 239.946 138.181 239.819 140.35C239.691 141.88 239.819 144.049 240.712 146.345C241.349 148.131 241.86 148.131 241.987 148.131C242.115 148.131 242.497 148.003 242.88 146.728Z" fill="#8758FF"/>
<path d="M189.564 49.7807C180.763 37.5347 164.947 19.676 140.585 8.4506C123.621 0.541755 111.376 0.0315089 108.698 0.0315089C93.9018 -0.351177 82.2948 3.98593 75.9173 6.91985C78.3407 6.53717 81.5295 6.40961 85.2284 6.79229C88.2896 7.17498 90.9682 7.94035 93.0089 8.70572C85.2284 8.57816 62.397 9.21596 40.4585 25.2888C23.2392 37.7898 15.3312 53.48 12.1424 61.0061C14.6934 58.8376 17.8822 56.4139 21.9637 54.1178C26.3004 51.6941 30.2545 50.0358 33.6983 48.8877C26.5555 55.9036 14.6934 69.2976 7.16798 89.58C5.38228 94.4274 -1.7605 114.327 0.662947 140.86C3.21394 168.796 14.821 188.951 21.4535 198.773C20.6882 196.222 19.7954 192.395 19.923 187.675C20.0505 182.573 21.326 178.491 22.3464 175.939C25.28 186.782 33.3157 210.381 55.2542 229.898C66.4786 239.848 77.8305 245.716 86.3764 249.032C84.8458 247.119 81.9121 243.165 80.8917 237.424C80.1264 233.725 80.3815 230.536 80.7642 228.495C82.0397 231.174 83.9529 234.873 86.759 238.955C92.6263 247.247 99.0038 252.094 103.085 255.155C120.815 268.294 146.707 275.82 151.172 277.096C154.233 271.101 158.952 260.13 159.462 245.843C160.228 228.24 154.488 215.356 152.957 212.295C147.473 200.686 139.437 191.502 138.927 190.992C137.269 189.078 132.039 183.593 126.81 176.832C125.662 175.429 123.748 172.878 121.708 169.306C121.197 168.541 119.284 165.224 118.009 162.29C116.606 159.229 114.565 153.361 114.437 144.559C111.121 152.978 111.249 159.356 112.141 163.693C112.652 166.627 113.8 169.689 113.544 174.536C113.417 178.746 112.269 182.062 111.376 184.359C108.187 180.787 104.106 175.812 99.8966 169.561C91.7334 157.315 87.5243 146.473 85.8662 141.625C83.3152 134.482 80.5091 124.277 79.2336 111.648C76.9377 114.455 74.3867 118.281 72.0908 123.001C68.6469 130.4 67.499 137.161 67.1164 141.88C65.7133 140.222 55.6369 127.593 59.5909 112.541C61.1215 106.801 64.0552 102.591 66.3511 100.168C63.9276 100.168 59.0807 100.678 53.9787 103.484C49.642 105.908 46.9635 108.969 45.4329 110.755C45.1778 109.225 44.1574 100.295 50.5349 92.5139C57.295 84.0948 67.2439 83.7122 68.6469 83.7122C66.9888 82.5641 60.8664 77.7167 58.8256 68.6598C56.9124 59.9856 60.2287 53.0973 61.6317 50.546C64.8205 44.9333 69.1572 42.127 72.0908 40.2135C77.4479 36.7693 82.6774 35.3662 85.9937 34.7284C85.356 35.7489 83.9529 38.045 83.6978 41.3616C83.4427 44.0404 84.208 46.2089 84.5907 47.357C85.7386 45.316 88.0345 41.8718 92.1161 38.9379C97.4732 35.111 102.83 34.3457 105.254 34.0905C110.356 33.7079 117.498 33.7079 125.534 35.4937C130.509 36.6418 134.718 38.1725 138.034 39.7033C136.376 37.9174 134.463 36.1315 132.422 34.3457C130.764 32.9425 129.233 31.5393 127.575 30.3912C132.039 30.1361 138.544 30.2637 146.197 32.3047C153.212 34.2181 158.57 37.0245 162.268 39.3206L157.422 30.1361C161.376 31.7944 165.585 33.7079 169.921 36.1315C177.574 40.5962 184.207 45.316 189.564 49.7807Z" fill="#8758FF"/>
<path d="M453.715 112.985C453.715 99.0806 450.271 86.7071 443.639 76.1195C437.006 65.5318 428.205 57.3679 417.746 51.7552C407.159 46.0149 396.19 43.2085 384.966 43.2085C372.593 43.2085 360.859 46.27 350.272 52.393C339.686 58.5159 331.14 67.0626 324.89 77.5227C318.64 88.1103 315.579 99.7184 315.579 112.092C315.579 124.465 318.767 136.201 324.89 146.789C331.14 157.376 339.686 165.923 350.272 172.174C360.859 178.424 372.593 181.486 384.966 181.486C395.17 181.486 404.991 179.317 413.919 175.108C422.848 170.898 430.756 164.903 437.261 157.249C443.256 150.233 447.72 142.324 450.526 133.65H421.19C417.874 140.793 413.027 146.661 406.777 150.871C400.272 155.335 392.874 157.632 384.966 157.632C375.272 157.632 366.599 154.315 359.073 147.682C351.548 141.049 346.701 132.629 344.788 122.424L344.405 120.511H453.46C453.587 118.598 453.715 116.046 453.715 112.985ZM421.828 98.4428L347.594 98.6979H345.425L346.063 96.657C348.869 87.7276 353.971 80.5842 361.114 75.2266C368.257 69.869 376.292 67.0626 385.093 67.0626C393.894 67.0626 401.802 69.7414 408.69 75.099C415.578 80.4566 420.552 87.6001 423.358 96.4018L423.996 98.4428H421.828Z" fill="#00171F"/>
<path d="M443.256 208.273C461.495 206.36 470.424 194.624 470.424 170.132V45.7593H496.699V170.132C496.699 210.952 476.291 231.872 443.256 234.041V208.273Z" fill="#00171F"/>
<path d="M581.265 43.2083C618.637 42.4429 651.035 75.0987 650.269 112.474V179.572H623.994V158.397C617.489 171.536 599.887 181.741 581.265 181.741C543.893 182.506 511.24 149.85 512.005 112.474C511.24 75.0987 544.02 42.3153 581.265 43.2083ZM581.648 68.7206C557.158 68.7206 538.408 88.1101 538.408 112.474C538.408 136.966 557.413 156.228 581.648 156.228C605.754 156.228 624.377 136.839 624.377 112.474C624.249 87.9825 606.01 68.7206 581.648 68.7206Z" fill="#00171F"/>
<path d="M669.146 110.561C669.146 67.5727 691.468 45.8872 725.523 45.8872H728.202V71.3996H725.523C706.136 71.3996 695.422 84.0282 695.422 110.561V179.572H669.146V110.561Z" fill="#00171F"/>
<path d="M804.222 43.2083C841.594 42.4429 873.991 75.0987 873.226 112.474V179.572H846.951V158.397C840.446 171.536 822.844 181.741 804.222 181.741C766.85 182.506 734.197 149.85 734.962 112.474C734.069 75.0987 766.85 42.3153 804.222 43.2083ZM804.477 68.7206C779.987 68.7206 761.237 88.1101 761.237 112.474C761.237 136.966 780.242 156.228 804.477 156.228C828.584 156.228 847.206 136.839 847.206 112.474C847.078 87.9825 828.839 68.7206 804.477 68.7206Z" fill="#00171F"/>
</svg>
